<?xml version="1.0" standalone="no"?>
<!DOCTYPE svg PUBLIC "-//W3C//DTD SVG 20010904//EN"
 "http://www.w3.org/TR/2001/REC-SVG-20010904/DTD/svg10.dtd">
<svg version="1.0" xmlns="http://www.w3.org/2000/svg"
 width="1792.000000pt" height="504.000000pt" viewBox="0 0 1792.000000 504.000000"
 preserveAspectRatio="xMidYMid meet">

<g transform="translate(0.000000,504.000000) scale(0.100000,-0.100000)"
fill="#000000" stroke="none">
<path d="M17280 4735 l0 -305 320 0 320 0 0 305 0 305 -320 0 -320 0 0 -305z"/>
<path d="M1270 3969 c-595 -33 -1050 -409 -1204 -995 -42 -160 -58 -300 -59
-499 -1 -393 78 -688 258 -961 180 -271 484 -467 825 -531 47 -9 164 -18 260
-20 197 -6 345 13 495 62 358 117 638 397 758 758 27 78 67 268 67 313 l0 24
-334 0 -334 0 -7 -56 c-21 -171 -93 -322 -206 -437 -124 -125 -264 -176 -448
-164 -181 12 -333 87 -437 214 -135 167 -206 376 -222 658 -19 332 34 628 149
821 48 83 171 203 246 242 175 92 428 96 597 10 158 -81 282 -252 316 -438 7
-36 14 -75 16 -87 l4 -23 330 0 330 0 0 26 c0 88 -64 312 -123 429 -186 371
-581 626 -1007 650 -52 3 -108 7 -125 8 -16 2 -82 0 -145 -4z"/>
<path d="M4200 3969 c-343 -18 -651 -150 -876 -375 -219 -220 -353 -518 -394
-879 -13 -118 -13 -380 1 -503 38 -348 178 -659 391 -870 114 -113 183 -162
323 -232 133 -66 200 -90 349 -122 137 -30 489 -33 636 -5 473 89 823 386 990
838 71 191 100 381 100 645 1 332 -47 559 -167 798 -67 133 -136 231 -237 332
-278 277 -639 398 -1116 373z m287 -515 c123 -28 208 -77 303 -173 128 -129
200 -279 247 -516 25 -126 25 -471 0 -600 -72 -367 -248 -598 -522 -681 -46
-14 -92 -19 -195 -18 -118 1 -145 4 -215 27 -245 81 -413 301 -488 637 -29
132 -32 520 -4 650 68 320 200 520 415 629 114 58 317 78 459 45z"/>
<path d="M10295 3969 c-337 -19 -627 -149 -853 -383 -186 -193 -305 -435 -363
-742 -20 -103 -23 -150 -23 -354 0 -246 11 -343 55 -510 88 -328 252 -588 479
-759 240 -181 499 -261 844 -261 418 0 736 119 994 373 152 150 264 347 306
540 l6 27 -326 -2 -326 -3 -24 -69 c-57 -170 -196 -303 -378 -362 -109 -35
-302 -44 -421 -20 -207 43 -394 195 -481 393 -40 91 -74 221 -90 343 -8 63
-14 125 -14 137 l0 23 1047 0 1046 0 -6 173 c-10 257 -47 451 -129 663 -67
177 -161 317 -304 453 -265 255 -599 364 -1039 340z m308 -485 c136 -34 264
-114 347 -217 92 -112 162 -288 177 -439 l6 -68 -721 0 -720 0 5 43 c12 95 55
238 99 327 78 158 221 285 383 340 121 41 295 46 424 14z"/>
<path d="M7345 3941 c-244 -57 -460 -199 -578 -378 -23 -35 -45 -63 -49 -63
-4 0 -8 88 -8 195 l0 195 -310 0 -310 0 0 -1945 0 -1945 320 0 320 0 0 705 c0
388 3 705 8 705 4 0 25 -28 47 -61 117 -177 357 -320 603 -360 97 -15 323 -12
418 6 593 113 954 669 954 1469 0 672 -256 1183 -697 1393 -153 73 -257 95
-463 99 -144 3 -189 0 -255 -15z m141 -482 c319 -56 525 -312 591 -734 18
-120 20 -376 4 -495 -56 -400 -250 -670 -536 -745 -76 -19 -233 -19 -310 0
-253 65 -433 289 -507 635 -25 119 -36 431 -19 572 44 372 217 647 466 737
107 39 208 49 311 30z"/>
<path d="M15468 3945 c-99 -16 -213 -52 -296 -94 -126 -64 -287 -199 -353
-296 -13 -19 -27 -35 -31 -35 -5 0 -8 83 -8 185 l0 185 -300 0 -300 0 0 -1425
0 -1425 315 0 315 0 0 798 c1 438 5 844 10 901 10 114 40 246 72 319 74 168
210 298 368 353 89 31 286 38 380 14 186 -48 313 -181 370 -387 34 -125 40
-285 40 -1155 l0 -843 315 0 316 0 -4 1008 c-3 978 -4 1010 -24 1103 -77 349
-235 572 -498 699 -199 97 -451 131 -687 95z"/>
<path d="M13440 3915 c-101 -17 -205 -54 -298 -107 -89 -50 -239 -192 -297
-281 -21 -31 -40 -55 -43 -52 -3 3 -4 97 -3 210 l2 205 -300 0 -301 0 0 -1425
0 -1425 320 0 320 0 0 756 c0 834 3 884 61 1059 40 119 87 202 161 280 99 106
210 168 368 206 60 15 294 19 373 7 l47 -8 0 284 0 283 -82 11 c-104 15 -231
14 -328 -3z"/>
<path d="M17280 2465 l0 -1425 320 0 320 0 0 1425 0 1425 -320 0 -320 0 0
-1425z"/>
</g>
</svg>
