<?xml version="1.0" encoding="utf-8"?>
<!-- Generator: Adobe Illustrator 17.1.0, SVG Export Plug-In . SVG Version: 6.00 Build 0)  -->
<!DOCTYPE svg PUBLIC "-//W3C//DTD SVG 1.1//EN" "http://www.w3.org/Graphics/SVG/1.1/DTD/svg11.dtd">
<svg version="1.1" id="Layer_1" xmlns="http://www.w3.org/2000/svg" xmlns:xlink="http://www.w3.org/1999/xlink" x="0px" y="0px"
	 viewBox="0 0 396.8 50" enable-background="new 0 0 396.8 50" xml:space="preserve">
<rect x="98.5" y="1.6" fill="none" width="35.2" height="46.9"/>
<g>
	<rect x="98.5" y="-45.2" fill="none" width="35.2" height="46.9"/>
	<rect x="98.5" y="-92.1" fill="none" width="35.2" height="46.9"/>
</g>
<rect x="-35.2" y="3.2" fill="none" width="35.2" height="46.9"/>
<rect x="-70.3" y="3.2" fill="none" width="35.2" height="46.9"/>
<rect x="432" y="3.2" fill="none" width="35.2" height="46.9"/>
<rect x="396.8" y="3.2" fill="none" width="35.2" height="46.9"/>
<rect x="98.5" y="95.4" fill="none" width="35.2" height="46.9"/>
<rect x="98.5" y="48.5" fill="none" width="35.2" height="46.9"/>
<g>
	<polygon points="124.8,18.4 107.2,18.4 107.2,1.6 98.4,1.6 98.4,48.5 107.2,48.5 107.2,26.4 107.2,26.4 124.8,26.4 124.8,48.5 
		133.6,48.5 133.6,1.6 124.8,1.6 	"/>
	<path d="M250.3,48.5h-31.8V1.6h8.3l0,38.5l-0.3,0.4h16c4.3,0,6-0.3,7.8-1.5V48.5z"/>
	<path d="M0.4,30.7C0.2,36.9,2,42,5.1,45.3c2.7,2.8,6.8,4.3,11.2,4.3c8.7,0,13.1-5.9,14.7-8.5V1.5h-8.4v29.6c0,8.1-3,10.4-7.1,10.4
		c-1.9,0-3.8-1-4.8-2.1c-2.3-2.6-3-5.8-2.4-11.5L8.6,26L0.4,30.7z"/>
	<g>
		<path d="M49.4,42.9c-3.8-4.6-5.8-10.6-5.8-17.8c0-7.2,2-13.2,5.9-17.9c3.7-4.4,8.8-6.7,15.1-6.7c6.3,0,11.3,2.3,15,6.7
			c3.9,4.7,5.9,10.7,5.9,17.9c0,7.2-2,13.1-5.9,17.7c-3.8,4.6-8.8,6.7-15.1,6.7C58.2,49.6,53.2,47.4,49.4,42.9z M76.7,25.3
			c0-10.7-5.2-16.9-12.2-16.9c-6.9,0-12.2,6.2-12.2,16.7c0,10.4,5.2,16.6,12.2,16.6C71.4,41.7,76.7,35.4,76.7,25.3z"/>
	</g>
	<g>
		<path d="M263.8,42.9c-3.9-4.6-5.8-10.6-5.8-17.8c0-7.2,2-13.2,5.9-17.9c3.7-4.4,8.8-6.7,15.1-6.7c6.3,0,11.3,2.3,15,6.7
			c3.9,4.7,5.9,10.7,5.9,17.9c0,7.2-2,13.1-5.9,17.7c-3.8,4.6-8.8,6.7-15.1,6.7C272.6,49.6,267.6,47.4,263.8,42.9z M291.1,25.3
			c0-10.7-5.2-16.9-12.2-16.9c-6.9,0-12.2,6.2-12.2,16.7c0,10.4,5.2,16.6,12.2,16.6C285.8,41.7,291.1,35.4,291.1,25.3z"/>
	</g>
	<path d="M340.6,22.4l-0.5-0.2l0.6-0.2c3.7-1.1,5.5-6,4.8-10.2c-1.1-6.8-6-10.2-17.2-10.2h-15.5v46.9H331c11.5,0,17.3-4.5,17.3-13.9
		C348.3,27.5,344.5,23.7,340.6,22.4z M321,8.9h8.5c4.3,0,7.5,1,7.5,4.8v0c0,3.9-3.2,4.8-7.5,4.8l-8.5,0V8.9z M330.2,41.2H321V26h7.8
		c6.3,0,10.2,2.4,10.2,7.4C339,39.9,334.4,41.2,330.2,41.2z"/>
	<polygon points="175.5,32.6 175.5,1.6 184.1,1.6 184.1,48.5 175.5,48.5 158.2,19.1 157.5,17.4 157.5,48.5 148.9,48.5 148.9,1.6 
		157.5,1.6 174.8,31 	"/>
	<path d="M388.7,22.4l-0.5-0.2l0.6-0.2c3.7-1.1,5.5-6,4.8-10.2c-1.1-6.8-6-10.2-17.2-10.2h-15.5v46.9h18.3
		c11.5,0,17.3-4.5,17.3-13.9C396.5,27.5,392.7,23.7,388.7,22.4z M369.2,8.9h8.5c4.3,0,7.5,1,7.5,4.8v0c0,3.9-3.2,4.8-7.5,4.8l-8.5,0
		V8.9z M378.3,41.2h-9.2V26h7.8c6.3,0,10.2,2.4,10.2,7.4C387.2,39.9,382.5,41.2,378.3,41.2z"/>
</g>
</svg>
