<svg width="136" height="157" viewBox="0 0 136 157" fill="none" xmlns="http://www.w3.org/2000/svg">
<rect x="45.0332" y="0.900658" width="90.0662" height="81.0596" fill="#EDEDED"/>
<rect width="135.099" height="0.900662" fill="black"/>
<rect x="135.1" y="139.603" width="139.603" height="0.900662" transform="rotate(-90 135.1 139.603)" fill="black"/>
<rect x="135.1" y="139.603" width="9.00662" height="0.900662" transform="rotate(180 135.1 139.603)" fill="black"/>
<rect x="69.3506" y="139.603" width="11.2583" height="0.900663" transform="rotate(180 69.3506 139.603)" fill="black"/>
<rect x="58.0928" y="144.106" width="4.50331" height="0.900662" transform="rotate(-90 58.0928 144.106)" fill="black"/>
<rect x="58.0928" y="156.715" width="2.25166" height="0.900662" transform="rotate(-90 58.0928 156.715)" fill="black"/>
<rect y="155.815" width="58.0927" height="0.900662" fill="black"/>
<path d="M77.68 33.06C78.328 33.06 78.742 32.658 78.85 32.04H78.46C78.382 32.424 78.112 32.73 77.71 32.73H77.65C76.996 32.73 76.69 32.154 76.69 31.5C76.69 30.846 76.996 30.27 77.65 30.27H77.71C78.112 30.27 78.394 30.558 78.46 30.96H78.85C78.79 30.33 78.328 29.94 77.68 29.94C76.792 29.94 76.3 30.618 76.3 31.5C76.3 32.382 76.792 33.06 77.68 33.06ZM81.7159 30L80.6839 32.43L79.6519 30H79.2259L80.4979 32.916V33.42C80.4979 33.6 80.4379 33.66 80.2579 33.66H79.4059V33.99H80.3179C80.7079 33.99 80.8879 33.834 80.8879 33.468V32.898L82.1239 30H81.7159ZM83.8206 33.06C84.4686 33.06 84.8826 32.658 84.9906 32.04H84.6006C84.5226 32.424 84.2526 32.73 83.8506 32.73H83.7906C83.1366 32.73 82.8306 32.154 82.8306 31.5C82.8306 30.846 83.1366 30.27 83.7906 30.27H83.8506C84.2526 30.27 84.5346 30.558 84.6006 30.96H84.9906C84.9306 30.33 84.4686 29.94 83.8206 29.94C82.9326 29.94 82.4406 30.618 82.4406 31.5C82.4406 32.382 82.9326 33.06 83.8206 33.06ZM86.1395 33V28.8H85.7495V33H86.1395ZM88.2912 33.06C89.0652 33.06 89.6712 32.43 89.6712 31.5C89.6712 30.57 89.0652 29.94 88.2912 29.94C87.5172 29.94 86.9112 30.57 86.9112 31.5C86.9112 32.43 87.5172 33.06 88.2912 33.06ZM88.2612 32.73C87.7212 32.73 87.3072 32.268 87.3072 31.5C87.3072 30.732 87.7212 30.27 88.2612 30.27H88.3212C88.8612 30.27 89.2752 30.732 89.2752 31.5C89.2752 32.268 88.8612 32.73 88.3212 32.73H88.2612ZM90.8329 33V31.542C90.8329 30.786 91.1869 30.33 91.7629 30.33H92.0029V29.97H91.7329C91.3189 29.97 90.9409 30.204 90.8029 30.684V30H90.4429V33H90.8329ZM93.2911 33.06C93.8191 33.06 94.2331 32.796 94.3531 32.52C94.3531 32.682 94.3591 32.868 94.3831 33H94.7431C94.7131 32.79 94.7131 32.52 94.7131 32.34V31.08C94.7131 30.468 94.3351 29.94 93.5551 29.94C92.9131 29.94 92.4391 30.306 92.4031 30.84H92.7931C92.8351 30.462 93.1591 30.27 93.5431 30.27H93.5731C94.0351 30.27 94.3231 30.564 94.3231 31.08V31.2L93.3751 31.272C92.9131 31.308 92.3431 31.512 92.3431 32.172C92.3431 32.682 92.7631 33.06 93.2911 33.06ZM93.3331 32.73C92.9911 32.73 92.7331 32.478 92.7331 32.148C92.7331 31.818 93.0271 31.608 93.4531 31.578L94.3231 31.518V31.92C94.3231 32.364 93.8071 32.73 93.3931 32.73H93.3331ZM96.036 33V31.5C96.036 30.852 96.324 30.27 96.93 30.27H96.966C97.428 30.27 97.656 30.558 97.656 31.158V33H98.046V31.5C98.046 30.852 98.334 30.27 98.94 30.27H98.976C99.438 30.27 99.666 30.558 99.666 31.158V33H100.056V31.038C100.056 30.318 99.618 29.94 99.036 29.94C98.55 29.94 98.184 30.162 97.974 30.57C97.824 30.156 97.464 29.94 97.026 29.94C96.564 29.94 96.216 30.168 96.036 30.48V30H95.646V33H96.036ZM101.758 33.06C102.286 33.06 102.7 32.796 102.82 32.52C102.82 32.682 102.826 32.868 102.85 33H103.21C103.18 32.79 103.18 32.52 103.18 32.34V31.08C103.18 30.468 102.802 29.94 102.022 29.94C101.38 29.94 100.906 30.306 100.87 30.84H101.26C101.302 30.462 101.626 30.27 102.01 30.27H102.04C102.502 30.27 102.79 30.564 102.79 31.08V31.2L101.842 31.272C101.38 31.308 100.81 31.512 100.81 32.172C100.81 32.682 101.23 33.06 101.758 33.06ZM101.8 32.73C101.458 32.73 101.2 32.478 101.2 32.148C101.2 31.818 101.494 31.608 101.92 31.578L102.79 31.518V31.92C102.79 32.364 102.274 32.73 101.86 32.73H101.8Z" fill="black"/>
<path d="M74.87 141.2V139.52C75.05 139.85 75.482 140.06 75.872 140.06C76.652 140.06 77.21 139.46 77.21 138.5C77.21 137.54 76.652 136.94 75.872 136.94C75.482 136.94 75.05 137.15 74.87 137.48V137H74.48V141.2H74.87ZM75.83 139.73C75.182 139.73 74.87 139.148 74.87 138.5C74.87 137.852 75.182 137.27 75.83 137.27H75.86C76.502 137.27 76.814 137.852 76.814 138.5C76.814 139.148 76.502 139.73 75.86 139.73H75.83ZM79.1838 140.06C79.9578 140.06 80.5638 139.43 80.5638 138.5C80.5638 137.57 79.9578 136.94 79.1838 136.94C78.4098 136.94 77.8038 137.57 77.8038 138.5C77.8038 139.43 78.4098 140.06 79.1838 140.06ZM79.1538 139.73C78.6138 139.73 78.1998 139.268 78.1998 138.5C78.1998 137.732 78.6138 137.27 79.1538 137.27H79.2138C79.7538 137.27 80.1678 137.732 80.1678 138.5C80.1678 139.268 79.7538 139.73 79.2138 139.73H79.1538ZM81.7255 140V138.542C81.7255 137.786 82.0795 137.33 82.6555 137.33H82.8955V136.97H82.6255C82.2115 136.97 81.8335 137.204 81.6955 137.684V137H81.3355V140H81.7255ZM85.0159 140V139.67H84.4159C84.2359 139.67 84.1759 139.61 84.1759 139.43V137.33H84.9259V137H84.1759V136.028H83.7859V137H83.0959V137.33H83.7859V139.46C83.7859 139.85 83.9659 140 84.3559 140H85.0159ZM86.7474 140.06C87.3594 140.06 87.8214 139.742 87.9534 139.142H87.5634C87.4494 139.544 87.1854 139.73 86.7774 139.73H86.7414C86.2494 139.73 85.8114 139.376 85.7994 138.53H87.9594V138.29C87.9594 137.522 87.4794 136.94 86.7474 136.94C86.0574 136.94 85.4094 137.444 85.4094 138.494C85.4094 139.52 85.9974 140.06 86.7474 140.06ZM85.8114 138.2C85.8954 137.486 86.3334 137.27 86.7114 137.27H86.7714C87.2454 137.27 87.5514 137.666 87.5694 138.2H85.8114ZM91.2076 140.06C91.8676 140.06 92.3056 139.73 92.3056 139.16C92.3056 138.65 91.9636 138.458 91.5376 138.368L91.0696 138.266C90.6856 138.182 90.5236 138.056 90.5236 137.786C90.5236 137.522 90.7576 137.27 91.1776 137.27H91.2376C91.6516 137.27 91.9096 137.57 91.9456 137.9H92.3356C92.3056 137.408 91.9576 136.94 91.2076 136.94C90.6376 136.94 90.1336 137.252 90.1336 137.822C90.1336 138.332 90.5056 138.536 90.9496 138.632L91.3876 138.728C91.7896 138.818 91.9156 138.956 91.9156 139.19C91.9156 139.52 91.6576 139.73 91.2376 139.73H91.1776C90.7636 139.73 90.4456 139.514 90.4036 139.1H90.0136C90.0436 139.652 90.4336 140.06 91.2076 140.06ZM94.265 140.06C94.877 140.06 95.339 139.742 95.471 139.142H95.081C94.967 139.544 94.703 139.73 94.295 139.73H94.259C93.767 139.73 93.329 139.376 93.317 138.53H95.477V138.29C95.477 137.522 94.997 136.94 94.265 136.94C93.575 136.94 92.927 137.444 92.927 138.494C92.927 139.52 93.515 140.06 94.265 140.06ZM93.329 138.2C93.413 137.486 93.851 137.27 94.229 137.27H94.289C94.763 137.27 95.069 137.666 95.087 138.2H93.329ZM97.4652 140.06C98.1132 140.06 98.5272 139.658 98.6352 139.04H98.2452C98.1672 139.424 97.8972 139.73 97.4952 139.73H97.4352C96.7812 139.73 96.4752 139.154 96.4752 138.5C96.4752 137.846 96.7812 137.27 97.4352 137.27H97.4952C97.8972 137.27 98.1792 137.558 98.2452 137.96H98.6352C98.5752 137.33 98.1132 136.94 97.4652 136.94C96.5772 136.94 96.0852 137.618 96.0852 138.5C96.0852 139.382 96.5772 140.06 97.4652 140.06ZM100.889 140V139.67H100.289C100.109 139.67 100.049 139.61 100.049 139.43V137.33H100.799V137H100.049V136.028H99.6589V137H98.9689V137.33H99.6589V139.46C99.6589 139.85 99.8389 140 100.229 140H100.889ZM101.918 136.46V135.95H101.468V136.46H101.918ZM101.888 140V137H101.498V140H101.888ZM104.039 140.06C104.813 140.06 105.419 139.43 105.419 138.5C105.419 137.57 104.813 136.94 104.039 136.94C103.265 136.94 102.659 137.57 102.659 138.5C102.659 139.43 103.265 140.06 104.039 140.06ZM104.009 139.73C103.469 139.73 103.055 139.268 103.055 138.5C103.055 137.732 103.469 137.27 104.009 137.27H104.069C104.609 137.27 105.023 137.732 105.023 138.5C105.023 139.268 104.609 139.73 104.069 139.73H104.009ZM106.581 140V138.5C106.581 137.852 106.887 137.27 107.535 137.27H107.571C108.051 137.27 108.291 137.558 108.291 138.158V140H108.681V138.038C108.681 137.318 108.231 136.94 107.631 136.94C107.139 136.94 106.755 137.174 106.581 137.504V137H106.191V140H106.581ZM110.003 140V138.5C110.003 137.852 110.309 137.27 110.957 137.27H110.993C111.473 137.27 111.713 137.558 111.713 138.158V140H112.103V138.038C112.103 137.318 111.653 136.94 111.053 136.94C110.561 136.94 110.177 137.174 110.003 137.504V137H109.613V140H110.003ZM114.193 140.06C114.805 140.06 115.267 139.742 115.399 139.142H115.009C114.895 139.544 114.631 139.73 114.223 139.73H114.187C113.695 139.73 113.257 139.376 113.245 138.53H115.405V138.29C115.405 137.522 114.925 136.94 114.193 136.94C113.503 136.94 112.855 137.444 112.855 138.494C112.855 139.52 113.443 140.06 114.193 140.06ZM113.257 138.2C113.341 137.486 113.779 137.27 114.157 137.27H114.217C114.691 137.27 114.997 137.666 115.015 138.2H113.257ZM116.583 140V135.8H116.193V140H116.583ZM117.931 140V135.8H117.541V140H117.931ZM120.046 140.06C120.658 140.06 121.12 139.742 121.252 139.142H120.862C120.748 139.544 120.484 139.73 120.076 139.73H120.04C119.548 139.73 119.11 139.376 119.098 138.53H121.258V138.29C121.258 137.522 120.778 136.94 120.046 136.94C119.356 136.94 118.708 137.444 118.708 138.494C118.708 139.52 119.296 140.06 120.046 140.06ZM119.11 138.2C119.194 137.486 119.632 137.27 120.01 137.27H120.07C120.544 137.27 120.85 137.666 120.868 138.2H119.11Z" fill="black"/>
<path d="M19.68 153.06C20.328 153.06 20.742 152.658 20.85 152.04H20.46C20.382 152.424 20.112 152.73 19.71 152.73H19.65C18.996 152.73 18.69 152.154 18.69 151.5C18.69 150.846 18.996 150.27 19.65 150.27H19.71C20.112 150.27 20.394 150.558 20.46 150.96H20.85C20.79 150.33 20.328 149.94 19.68 149.94C18.792 149.94 18.3 150.618 18.3 151.5C18.3 152.382 18.792 153.06 19.68 153.06ZM22.6169 153.06C23.1089 153.06 23.4629 152.832 23.6189 152.436V153H24.0089V150H23.6189V151.62C23.6189 152.316 23.1869 152.73 22.7489 152.73H22.6889C22.2089 152.73 21.9689 152.436 21.9689 151.86V150H21.5789V151.98C21.5789 152.61 21.9509 153.06 22.6169 153.06ZM25.3863 149.46V148.95H24.9363V149.46H25.3863ZM25.3563 153V150H24.9663V153H25.3563ZM27.274 153.06C27.934 153.06 28.372 152.73 28.372 152.16C28.372 151.65 28.03 151.458 27.604 151.368L27.136 151.266C26.752 151.182 26.59 151.056 26.59 150.786C26.59 150.522 26.824 150.27 27.244 150.27H27.304C27.718 150.27 27.976 150.57 28.012 150.9H28.402C28.372 150.408 28.024 149.94 27.274 149.94C26.704 149.94 26.2 150.252 26.2 150.822C26.2 151.332 26.572 151.536 27.016 151.632L27.454 151.728C27.856 151.818 27.982 151.956 27.982 152.19C27.982 152.52 27.724 152.73 27.304 152.73H27.244C26.83 152.73 26.512 152.514 26.47 152.1H26.08C26.11 152.652 26.5 153.06 27.274 153.06ZM29.5934 149.46V148.95H29.1434V149.46H29.5934ZM29.5634 153V150H29.1734V153H29.5634ZM30.911 153V151.5C30.911 150.852 31.217 150.27 31.865 150.27H31.901C32.381 150.27 32.621 150.558 32.621 151.158V153H33.011V151.038C33.011 150.318 32.561 149.94 31.961 149.94C31.469 149.94 31.085 150.174 30.911 150.504V150H30.521V153H30.911ZM35.1009 153.06C35.7129 153.06 36.1749 152.742 36.3069 152.142H35.9169C35.8029 152.544 35.5389 152.73 35.1309 152.73H35.0949C34.6029 152.73 34.1649 152.376 34.1529 151.53H36.3129V151.29C36.3129 150.522 35.8329 149.94 35.1009 149.94C34.4109 149.94 33.7629 150.444 33.7629 151.494C33.7629 152.52 34.3509 153.06 35.1009 153.06ZM34.1649 151.2C34.2489 150.486 34.6869 150.27 35.0649 150.27H35.1249C35.5989 150.27 35.9049 150.666 35.9229 151.2H34.1649Z" fill="black"/>
<path d="M12.9027 7.06C13.5507 7.06 13.9647 6.658 14.0727 6.04H13.6827C13.6047 6.424 13.3347 6.73 12.9327 6.73H12.8727C12.2187 6.73 11.9127 6.154 11.9127 5.5C11.9127 4.846 12.2187 4.27 12.8727 4.27H12.9327C13.3347 4.27 13.6167 4.558 13.6827 4.96H14.0727C14.0127 4.33 13.5507 3.94 12.9027 3.94C12.0147 3.94 11.5227 4.618 11.5227 5.5C11.5227 6.382 12.0147 7.06 12.9027 7.06ZM15.6056 7.06C16.1336 7.06 16.5476 6.796 16.6676 6.52C16.6676 6.682 16.6736 6.868 16.6976 7H17.0576C17.0276 6.79 17.0276 6.52 17.0276 6.34V5.08C17.0276 4.468 16.6496 3.94 15.8696 3.94C15.2276 3.94 14.7536 4.306 14.7176 4.84H15.1076C15.1496 4.462 15.4736 4.27 15.8576 4.27H15.8876C16.3496 4.27 16.6376 4.564 16.6376 5.08V5.2L15.6896 5.272C15.2276 5.308 14.6576 5.512 14.6576 6.172C14.6576 6.682 15.0776 7.06 15.6056 7.06ZM15.6476 6.73C15.3056 6.73 15.0476 6.478 15.0476 6.148C15.0476 5.818 15.3416 5.608 15.7676 5.578L16.6376 5.518V5.92C16.6376 6.364 16.1216 6.73 15.7076 6.73H15.6476ZM19.3525 7.06C20.1325 7.06 20.6905 6.46 20.6905 5.5C20.6905 4.54 20.1325 3.94 19.3525 3.94C18.9625 3.94 18.5305 4.15 18.3505 4.48V2.8H17.9605V7H18.3505V6.52C18.5305 6.85 18.9625 7.06 19.3525 7.06ZM19.3105 6.73C18.6625 6.73 18.3505 6.148 18.3505 5.5C18.3505 4.852 18.6625 4.27 19.3105 4.27H19.3405C19.9825 4.27 20.2945 4.852 20.2945 5.5C20.2945 6.148 19.9825 6.73 19.3405 6.73H19.3105ZM21.8902 3.46V2.95H21.4402V3.46H21.8902ZM21.8602 7V4H21.4702V7H21.8602ZM23.2079 7V5.5C23.2079 4.852 23.5139 4.27 24.1619 4.27H24.1979C24.6779 4.27 24.9179 4.558 24.9179 5.158V7H25.3079V5.038C25.3079 4.318 24.8579 3.94 24.2579 3.94C23.7659 3.94 23.3819 4.174 23.2079 4.504V4H22.8179V7H23.2079ZM27.3978 7.06C28.0098 7.06 28.4718 6.742 28.6038 6.142H28.2138C28.0998 6.544 27.8358 6.73 27.4278 6.73H27.3918C26.8998 6.73 26.4618 6.376 26.4498 5.53H28.6098V5.29C28.6098 4.522 28.1298 3.94 27.3978 3.94C26.7078 3.94 26.0598 4.444 26.0598 5.494C26.0598 6.52 26.6478 7.06 27.3978 7.06ZM26.4618 5.2C26.5458 4.486 26.9838 4.27 27.3618 4.27H27.4218C27.8958 4.27 28.2018 4.666 28.2198 5.2H26.4618ZM30.358 7.06C31.018 7.06 31.456 6.73 31.456 6.16C31.456 5.65 31.114 5.458 30.688 5.368L30.22 5.266C29.836 5.182 29.674 5.056 29.674 4.786C29.674 4.522 29.908 4.27 30.328 4.27H30.388C30.802 4.27 31.06 4.57 31.096 4.9H31.486C31.456 4.408 31.108 3.94 30.358 3.94C29.788 3.94 29.284 4.252 29.284 4.822C29.284 5.332 29.656 5.536 30.1 5.632L30.538 5.728C30.94 5.818 31.066 5.956 31.066 6.19C31.066 6.52 30.808 6.73 30.388 6.73H30.328C29.914 6.73 29.596 6.514 29.554 6.1H29.164C29.194 6.652 29.584 7.06 30.358 7.06ZM7.30538 15V13.062H7.99538V12.672H7.30538V11.916H6.89738V12.672H5.92538C5.46338 12.672 5.10338 12.39 5.10338 11.94C5.10338 11.454 5.46938 11.19 5.88938 11.19H6.58538V10.8H5.84738C5.21738 10.8 4.69538 11.196 4.69538 11.88C4.69538 12.378 4.97138 12.714 5.35538 12.87C4.92938 13.014 4.66538 13.404 4.66538 13.89C4.66538 14.586 5.16338 15 5.79338 15H7.30538ZM5.93138 14.61C5.43338 14.61 5.07338 14.334 5.07338 13.8C5.07338 13.326 5.43338 13.062 5.92538 13.062H6.89738V14.61H5.93138ZM10.4257 15V13.5C10.4257 12.852 10.7137 12.27 11.3197 12.27H11.3557C11.8177 12.27 12.0457 12.558 12.0457 13.158V15H12.4357V13.5C12.4357 12.852 12.7237 12.27 13.3297 12.27H13.3657C13.8277 12.27 14.0557 12.558 14.0557 13.158V15H14.4457V13.038C14.4457 12.318 14.0077 11.94 13.4257 11.94C12.9397 11.94 12.5737 12.162 12.3637 12.57C12.2137 12.156 11.8537 11.94 11.4157 11.94C10.9537 11.94 10.6057 12.168 10.4257 12.48V12H10.0357V15H10.4257ZM16.1476 15.06C16.6756 15.06 17.0896 14.796 17.2096 14.52C17.2096 14.682 17.2156 14.868 17.2396 15H17.5996C17.5696 14.79 17.5696 14.52 17.5696 14.34V13.08C17.5696 12.468 17.1916 11.94 16.4116 11.94C15.7696 11.94 15.2956 12.306 15.2596 12.84H15.6496C15.6916 12.462 16.0156 12.27 16.3996 12.27H16.4296C16.8916 12.27 17.1796 12.564 17.1796 13.08V13.2L16.2316 13.272C15.7696 13.308 15.1996 13.512 15.1996 14.172C15.1996 14.682 15.6196 15.06 16.1476 15.06ZM16.1896 14.73C15.8476 14.73 15.5896 14.478 15.5896 14.148C15.5896 13.818 15.8836 13.608 16.3096 13.578L17.1796 13.518V13.92C17.1796 14.364 16.6636 14.73 16.2496 14.73H16.1896ZM21.0525 16.2V12H20.6625V12.48C20.4825 12.15 20.0505 11.94 19.6605 11.94C18.8805 11.94 18.3225 12.54 18.3225 13.5C18.3225 14.46 18.8805 15.06 19.6605 15.06C20.0505 15.06 20.4825 14.85 20.6625 14.52V16.2H21.0525ZM19.6725 14.73C19.0305 14.73 18.7185 14.148 18.7185 13.5C18.7185 12.852 19.0305 12.27 19.6725 12.27H19.7025C20.3505 12.27 20.6625 12.852 20.6625 13.5C20.6625 14.148 20.3505 14.73 19.7025 14.73H19.6725ZM23.0202 15.06C23.5122 15.06 23.8662 14.832 24.0222 14.436V15H24.4122V12H24.0222V13.62C24.0222 14.316 23.5902 14.73 23.1522 14.73H23.0922C22.6122 14.73 22.3722 14.436 22.3722 13.86V12H21.9822V13.98C21.9822 14.61 22.3542 15.06 23.0202 15.06ZM25.7896 11.46V10.95H25.3396V11.46H25.7896ZM25.7596 15V12H25.3696V15H25.7596ZM27.1073 15V10.8H26.7173V15H27.1073ZM28.455 15V10.8H28.065V15H28.455ZM30.1866 15.06C30.7146 15.06 31.1286 14.796 31.2486 14.52C31.2486 14.682 31.2546 14.868 31.2786 15H31.6386C31.6086 14.79 31.6086 14.52 31.6086 14.34V13.08C31.6086 12.468 31.2306 11.94 30.4506 11.94C29.8086 11.94 29.3346 12.306 29.2986 12.84H29.6886C29.7306 12.462 30.0546 12.27 30.4386 12.27H30.4686C30.9306 12.27 31.2186 12.564 31.2186 13.08V13.2L30.2706 13.272C29.8086 13.308 29.2386 13.512 29.2386 14.172C29.2386 14.682 29.6586 15.06 30.1866 15.06ZM30.2286 14.73C29.8866 14.73 29.6286 14.478 29.6286 14.148C29.6286 13.818 29.9226 13.608 30.3486 13.578L31.2186 13.518V13.92C31.2186 14.364 30.7026 14.73 30.2886 14.73H30.2286ZM33.6575 16.32C34.5275 16.32 35.0435 15.756 35.0435 14.976V12H34.6535V12.48C34.4735 12.15 34.1375 11.94 33.6575 11.94C32.9075 11.94 32.3615 12.54 32.3615 13.5C32.3615 14.46 32.9075 15 33.6575 15C34.1375 15 34.4735 14.79 34.6535 14.46V14.946C34.6535 15.696 34.1975 15.99 33.6875 15.99H33.6275C33.1175 15.99 32.7695 15.798 32.6915 15.42H32.3015C32.3615 15.942 32.7875 16.32 33.6575 16.32ZM33.6695 14.67C33.1295 14.67 32.7515 14.25 32.7515 13.5C32.7515 12.75 33.1295 12.27 33.6695 12.27H33.7295C34.2695 12.27 34.6535 12.75 34.6535 13.5C34.6535 14.25 34.2695 14.67 33.7295 14.67H33.6695ZM37.1624 15.06C37.7744 15.06 38.2364 14.742 38.3684 14.142H37.9784C37.8644 14.544 37.6004 14.73 37.1924 14.73H37.1564C36.6644 14.73 36.2264 14.376 36.2144 13.53H38.3744V13.29C38.3744 12.522 37.8944 11.94 37.1624 11.94C36.4724 11.94 35.8244 12.444 35.8244 13.494C35.8244 14.52 36.4124 15.06 37.1624 15.06ZM36.2264 13.2C36.3104 12.486 36.7484 12.27 37.1264 12.27H37.1864C37.6604 12.27 37.9664 12.666 37.9844 13.2H36.2264Z" fill="black"/>
<path d="M62.38 42.7595C63.04 42.7595 63.555 42.2745 63.555 41.5845C63.555 40.9845 63.135 40.5195 62.485 40.5195C62.195 40.5195 61.93 40.6195 61.755 40.7945L62.025 39.5445H63.52V39.2095H61.745L61.325 41.2445H61.66C61.83 40.9795 62.15 40.8445 62.41 40.8445H62.46C62.905 40.8445 63.215 41.1595 63.215 41.6095C63.215 42.0795 62.885 42.4345 62.405 42.4345H62.355C61.94 42.4345 61.59 42.2195 61.535 41.8095H61.195C61.245 42.4345 61.765 42.7595 62.38 42.7595ZM64.2119 43.2845C64.5169 43.2845 64.6869 43.1095 64.6869 42.8095V42.2095H64.1869V42.7095H64.4619V42.7845C64.4619 42.9845 64.3619 43.0845 64.1619 43.0845H64.0119V43.2845H64.2119ZM66.5207 40.4095C66.1207 40.4095 65.6957 40.5995 65.5207 41.0395C65.5657 40.1145 65.9957 39.4845 66.5807 39.4845H66.6307C66.9807 39.4845 67.2757 39.7045 67.3607 40.0345H67.7007C67.5907 39.4795 67.1857 39.1595 66.6057 39.1595C65.7957 39.1595 65.2207 39.9345 65.2207 41.0495C65.2207 42.1045 65.6857 42.7595 66.4957 42.7595C67.1457 42.7595 67.6507 42.2895 67.6507 41.5395C67.6507 40.8845 67.1857 40.4095 66.5207 40.4095ZM66.4657 42.4345C65.9907 42.4345 65.6357 42.0695 65.6357 41.5795C65.6357 41.0945 65.9907 40.7345 66.4657 40.7345H66.5157C67.0007 40.7345 67.3107 41.0995 67.3107 41.5845C67.3107 42.0745 66.9707 42.4345 66.5157 42.4345H66.4657ZM68.6879 42.7095V41.4595C68.6879 40.9195 68.9279 40.4345 69.4329 40.4345H69.4629C69.8479 40.4345 70.0379 40.6745 70.0379 41.1745V42.7095H70.3629V41.4595C70.3629 40.9195 70.6029 40.4345 71.1079 40.4345H71.1379C71.5229 40.4345 71.7129 40.6745 71.7129 41.1745V42.7095H72.0379V41.0745C72.0379 40.4745 71.6729 40.1595 71.1879 40.1595C70.7829 40.1595 70.4779 40.3445 70.3029 40.6845C70.1779 40.3395 69.8779 40.1595 69.5129 40.1595C69.1279 40.1595 68.8379 40.3495 68.6879 40.6095V40.2095H68.3629V42.7095H68.6879ZM76.5911 42.7095V42.3845H74.4961V39.2095H74.1461V42.7095H76.5911ZM78.2326 42.7095L79.0126 41.6845L79.7876 42.7095H80.1676L79.2026 41.4295L80.1326 40.2095H79.7676L79.0226 41.1895L78.2826 40.2095H77.9026L78.8326 41.4395L77.8676 42.7095H78.2326ZM83.7326 42.7095V41.8645H84.3076V41.5495H83.7326V39.2095H83.3526L81.6626 41.4945V41.8645H83.4076V42.7095H83.7326ZM83.4076 39.6095V41.5495H81.9826L83.4076 39.6095ZM84.8418 43.2845C85.1468 43.2845 85.3168 43.1095 85.3168 42.8095V42.2095H84.8168V42.7095H85.0918V42.7845C85.0918 42.9845 84.9918 43.0845 84.7918 43.0845H84.6418V43.2845H84.8418ZM87.1505 40.4095C86.7505 40.4095 86.3255 40.5995 86.1505 41.0395C86.1955 40.1145 86.6255 39.4845 87.2105 39.4845H87.2605C87.6105 39.4845 87.9055 39.7045 87.9905 40.0345H88.3305C88.2205 39.4795 87.8155 39.1595 87.2355 39.1595C86.4255 39.1595 85.8505 39.9345 85.8505 41.0495C85.8505 42.1045 86.3155 42.7595 87.1255 42.7595C87.7755 42.7595 88.2805 42.2895 88.2805 41.5395C88.2805 40.8845 87.8155 40.4095 87.1505 40.4095ZM87.0955 42.4345C86.6205 42.4345 86.2655 42.0695 86.2655 41.5795C86.2655 41.0945 86.6205 40.7345 87.0955 40.7345H87.1455C87.6305 40.7345 87.9405 41.0995 87.9405 41.5845C87.9405 42.0745 87.6005 42.4345 87.1455 42.4345H87.0955ZM89.3178 42.7095V41.4595C89.3178 40.9195 89.5578 40.4345 90.0628 40.4345H90.0928C90.4778 40.4345 90.6678 40.6745 90.6678 41.1745V42.7095H90.9928V41.4595C90.9928 40.9195 91.2328 40.4345 91.7378 40.4345H91.7678C92.1528 40.4345 92.3428 40.6745 92.3428 41.1745V42.7095H92.6678V41.0745C92.6678 40.4745 92.3028 40.1595 91.8178 40.1595C91.4128 40.1595 91.1078 40.3445 90.9328 40.6845C90.8078 40.3395 90.5078 40.1595 90.1428 40.1595C89.7578 40.1595 89.4678 40.3495 89.3178 40.6095V40.2095H88.9928V42.7095H89.3178ZM95.016 42.7095V39.2095H94.691V42.7095H95.016ZM97.1291 42.7095L97.9091 41.6845L98.6841 42.7095H99.0641L98.0991 41.4295L99.0291 40.2095H98.6641L97.9191 41.1895L97.1791 40.2095H96.7991L97.7291 41.4395L96.7641 42.7095H97.1291ZM102.629 42.7095V41.8645H103.204V41.5495H102.629V39.2095H102.249L100.559 41.4945V41.8645H102.304V42.7095H102.629ZM102.304 39.6095V41.5495H100.879L102.304 39.6095ZM103.738 43.2845C104.043 43.2845 104.213 43.1095 104.213 42.8095V42.2095H103.713V42.7095H103.988V42.7845C103.988 42.9845 103.888 43.0845 103.688 43.0845H103.538V43.2845H103.738ZM104.513 39.5445H106.498C105.698 40.0095 105.153 41.0495 105.153 42.5645V42.7095H105.493V42.6095C105.493 41.0845 105.958 40.1645 106.838 39.6095V39.2095H104.513V39.5445ZM107.716 42.7095V41.4595C107.716 40.9195 107.956 40.4345 108.461 40.4345H108.491C108.876 40.4345 109.066 40.6745 109.066 41.1745V42.7095H109.391V41.4595C109.391 40.9195 109.631 40.4345 110.136 40.4345H110.166C110.551 40.4345 110.741 40.6745 110.741 41.1745V42.7095H111.066V41.0745C111.066 40.4745 110.701 40.1595 110.216 40.1595C109.811 40.1595 109.506 40.3445 109.331 40.6845C109.206 40.3395 108.906 40.1595 108.541 40.1595C108.156 40.1595 107.866 40.3495 107.716 40.6095V40.2095H107.391V42.7095H107.716ZM113.524 42.7095V41.1195H115.499V42.7095H115.849V39.2095H115.499V40.7945H113.524V39.2095H113.174V42.7095H113.524Z" fill="black"/>
<path d="M85.955 50.6499C86.26 50.3449 86.47 50.0699 86.47 49.6449C86.47 49.1099 86.03 48.7149 85.39 48.7149C84.74 48.7149 84.295 49.1549 84.29 49.7849H84.63C84.64 49.3349 84.925 49.0399 85.375 49.0399H85.425C85.825 49.0399 86.13 49.3199 86.13 49.6449C86.13 49.9399 86.055 50.0899 85.66 50.4899L84.255 51.9149V52.2649H86.52V51.9299H84.68L85.955 50.6499ZM88.3683 49.9649C87.9683 49.9649 87.5433 50.1549 87.3683 50.5949C87.4133 49.6699 87.8433 49.0399 88.4283 49.0399H88.4783C88.8283 49.0399 89.1233 49.2599 89.2083 49.5899H89.5483C89.4383 49.0349 89.0333 48.7149 88.4533 48.7149C87.6433 48.7149 87.0683 49.4899 87.0683 50.6049C87.0683 51.6599 87.5333 52.3149 88.3433 52.3149C88.9933 52.3149 89.4983 51.8449 89.4983 51.0949C89.4983 50.4399 89.0333 49.9649 88.3683 49.9649ZM88.3133 51.9899C87.8383 51.9899 87.4833 51.6249 87.4833 51.1349C87.4833 50.6499 87.8383 50.2899 88.3133 50.2899H88.3633C88.8483 50.2899 89.1583 50.6549 89.1583 51.1399C89.1583 51.6299 88.8183 51.9899 88.3633 51.9899H88.3133ZM90.5355 52.2649V51.0149C90.5355 50.4749 90.7755 49.9899 91.2805 49.9899H91.3105C91.6955 49.9899 91.8855 50.2299 91.8855 50.7299V52.2649H92.2105V51.0149C92.2105 50.4749 92.4505 49.9899 92.9555 49.9899H92.9855C93.3705 49.9899 93.5605 50.2299 93.5605 50.7299V52.2649H93.8855V50.6299C93.8855 50.0299 93.5205 49.7149 93.0355 49.7149C92.6305 49.7149 92.3255 49.8999 92.1505 50.2399C92.0255 49.8949 91.7255 49.7149 91.3605 49.7149C90.9755 49.7149 90.6855 49.9049 90.5355 50.1649V49.7649H90.2105V52.2649H90.5355ZM95.7788 50.1899V49.9399H94.7488L95.3638 49.4049C95.5638 49.2299 95.7588 49.0649 95.7588 48.7649C95.7588 48.3999 95.4838 48.1899 95.1238 48.1899C94.7738 48.1899 94.4588 48.4149 94.4588 48.7849H94.7638C94.7638 48.5599 94.9538 48.4399 95.1038 48.4399H95.1288C95.3088 48.4399 95.4538 48.5699 95.4538 48.7649C95.4538 48.9599 95.3738 49.0399 95.0788 49.2999L94.4488 49.8499V50.1899H95.7788Z" fill="black"/>
</svg>
